HIERARCHY
ROOT Hips
{
	OFFSET 0.00000 0.00000 0.00000
	CHANNELS 6 Xposition Yposition Zposition Zrotation Yrotation Xrotation 
	JOINT LHipJoint
	{
		OFFSET 0 0 0
		CHANNELS 3 Zrotation Yrotation Xrotation
		JOINT LeftHip
		{
			OFFSET 1.62329 -1.80800 0.67318
			CHANNELS 3 Zrotation Yrotation Xrotation
			JOINT LeftKnee
			{
				OFFSET 2.57139 -7.06484 0.00000
				CHANNELS 3 Zrotation Yrotation Xrotation
				JOINT LeftAnkle
				{
					OFFSET 2.52017 -6.92413 0.00000
					CHANNELS 3 Zrotation Yrotation Xrotation
					JOINT LeftToe
					{
						OFFSET 0.23295 -0.64001 2.10214
						CHANNELS 3 Zrotation Yrotation Xrotation
						End Site
						{
							OFFSET 0.00000 -0.00000 1.10139
						}
					}
				}
			}
		}
	}
	JOINT RHipJoint
	{
		OFFSET 0 0 0
		CHANNELS 3 Zrotation Yrotation Xrotation
		JOINT RightHip
		{
			OFFSET -1.48061 -1.80800 0.67318
			CHANNELS 3 Zrotation Yrotation Xrotation
			JOINT RightKnee
			{
				OFFSET -2.63258 -7.23296 0.00000
				CHANNELS 3 Zrotation Yrotation Xrotation
				JOINT RightAnkle
				{
					OFFSET -2.54779 -7.00000 0.00000
					CHANNELS 3 Zrotation Yrotation Xrotation
					JOINT RightToe
					{
						OFFSET -0.23067 -0.63376 2.12161
						CHANNELS 3 Zrotation Yrotation Xrotation
						End Site
						{
							OFFSET -0.00000 -0.00000 1.11000
						}
					}
				}
			}
		}
	}
	JOINT lowerback
	{
		OFFSET 0 0 0
		CHANNELS 3 Zrotation Yrotation Xrotation
		JOINT Chest
		{
			OFFSET -0.02108 2.07573 -0.16981
			CHANNELS 3 Zrotation Yrotation Xrotation
			JOINT Chest2
			{
				OFFSET 0.05070 2.08439 -0.03141
				CHANNELS 3 Zrotation Yrotation Xrotation
				JOINT lowerneck
				{
					OFFSET 0 0 0
					CHANNELS 3 Zrotation Yrotation Xrotation
					JOINT Neck
					{
						OFFSET -0.10731 1.60408 0.31370
						CHANNELS 3 Zrotation Yrotation Xrotation
						JOINT Head
						{
							OFFSET 0.08411 1.65679 -0.30822
							CHANNELS 3 Zrotation Yrotation Xrotation
							End Site
							{
								OFFSET 0.03911 1.69149 -0.14146
							}
						}
					}
				}
				JOINT LeftCollar
				{
					OFFSET 0 0 0
					CHANNELS 3 Zrotation Yrotation Xrotation
					JOINT LeftShoulder
					{
						OFFSET 3.52315 0.73219 -0.54694
CHANNELS 3 Zrotation Xrotation Yrotation
						JOINT LeftElbow
						{
OFFSET 0 -5.324620 -0.000000
CHANNELS 3 Zrotation Xrotation Yrotation
							JOINT LeftWrist
							{
OFFSET 0 -3.484020 -0.000000
CHANNELS 3 Zrotation Xrotation Yrotation
								JOINT lhand
								{
									OFFSET 0 0 0
CHANNELS 3 Zrotation Xrotation Yrotation
									JOINT LFingers
									{
OFFSET 0 -0.572480 -0.000000
CHANNELS 3 Zrotation Xrotation Yrotation
										End Site
										{
OFFSET 0 -0.461540 -0.000000
										}
									}
								}
								JOINT LThumb
								{
OFFSET 0 0.000000 0.000000
CHANNELS 3 Zrotation Xrotation Yrotation
									End Site
									{
OFFSET 0 -0.468590 0.468590
									}
								}
							}
						}
					}
				}
				JOINT RightCollar
				{
					OFFSET 0 0 0
					CHANNELS 3 Zrotation Yrotation Xrotation
					JOINT RightShoulder
					{
						OFFSET -3.41766 0.93592 -0.10019
CHANNELS 3 Zrotation Xrotation Yrotation
						JOINT RightElbow
						{
OFFSET 0 -5.335890 -0.000000
CHANNELS 3 Zrotation Xrotation Yrotation
							JOINT RightWrist
							{
OFFSET 0 -3.641340 -0.000000
CHANNELS 3 Zrotation Xrotation Yrotation
								JOINT rhand
								{
									OFFSET 0 0 0
CHANNELS 3 Zrotation Xrotation Yrotation
									JOINT RFingers
									{
OFFSET 0 -0.734810 -0.000000
CHANNELS 3 Zrotation Xrotation Yrotation
										End Site
										{
OFFSET 0 -0.592420 -0.000000
										}
									}
								}
								JOINT RThumb
								{
OFFSET 0 0.000000 0.000000
CHANNELS 3 Zrotation Xrotation Yrotation
									End Site
									{
OFFSET 0 -0.601470 0.601470
									}
								}
							}
						}
					}
				}
			}
		}
	}
}
MOTION
Frames: 7
Frame Time: 0.008333333333333333
-4.615100 18.038200 -5.709700 24.145100 -47.534800 -2.533500 0.000000 0.000000 0.000000 -24.135000 -8.873100 -19.587000 0.632900 5.090200 14.165900 0.130300 -4.523200 9.968100 0.234900 -3.119100 -8.610400 0.000000 0.000000 0.000000 1.153100 8.408500 -33.544100 -3.985300 -12.140800 36.231800 -1.183600 1.129900 -20.225800 -0.869200 -5.944600 16.623700 4.418000 1.431300 11.697500 10.266000 2.218300 5.513500 8.131000 0.924000 -0.986300 -13.273100 -12.883500 -5.237100 3.626100 -18.326800 30.863000 1.094700 -9.252800 12.744400 -0.000000 0.000000 0.000000 6.746500 -4.787900 -69.935100 65.648100 -57.636200 39.078000 31.033500 -41.198400 -38.863000 0.000000 0.000000 0.000000 -7.125000 0.000000 0.000000 -6.830700 73.124400 4.559400 -0.000000 0.000000 0.000000 -9.254100 -33.599100 13.083000 -21.224200 -32.089100 -6.168600 -16.562800 -16.801400 19.358400 0.000000 0.000000 0.000000 7.125000 0.000000 -0.000000 11.597400 49.753600 -1.375600
-4.661143 18.027939 -5.715727 24.205734 -46.673367 -2.380764 0.000000 0.000000 0.000000 -24.695548 -9.187739 -19.748886 0.668246 5.227476 14.558544 0.121615 -4.080153 9.355047 0.220707 -3.023637 -8.344603 0.000000 0.000000 0.000000 0.730206 9.004538 -33.280600 -4.062179 -12.242644 36.595803 -1.303694 0.704685 -21.374641 -0.878047 -5.973637 16.708094 5.214856 2.470125 11.915987 10.353444 3.653676 5.784868 7.574913 1.646047 -0.926597 -12.139418 -14.157265 -5.016634 4.060436 -20.425686 30.404907 0.784502 -9.967814 12.630214 0.000000 0.000000 0.000000 6.997671 -1.558242 -64.724109 68.713681 -58.216728 41.675914 39.253667 -43.950441 -41.324220 0.000000 0.000000 0.000000 -7.125000 0.000000 0.000000 6.206679 78.549138 -4.848878 0.000000 0.000000 0.000000 -4.726701 -36.744174 24.897130 -19.896597 -30.517491 -5.478752 -7.220571 -18.812268 19.713910 0.000000 0.000000 0.000000 7.125000 0.000000 0.000000 20.492581 48.712292 -1.951797
-4.695704 18.053949 -5.695263 23.763561 -46.373212 -2.087863 0.000000 0.000000 0.000000 -24.815884 -9.295894 -20.060906 0.763019 5.578357 15.565681 0.117632 -3.301991 8.557886 0.296896 -3.503318 -9.683440 0.000000 0.000000 0.000000 0.979167 9.335604 -32.407801 -3.906710 -12.035196 35.856670 -1.306555 0.439065 -21.480843 -0.904751 -6.059927 16.958863 5.819820 3.170881 12.578281 10.310331 4.681027 5.994726 7.019902 2.160965 -1.106101 -11.830909 -15.028176 -4.819603 5.068893 -21.959807 29.830348 0.873564 -10.480218 12.602564 0.000000 0.000000 0.000000 6.840722 -0.884537 -62.899824 68.197810 -58.125420 41.237610 37.608529 -45.077459 -45.119122 0.000000 0.000000 0.000000 -7.125000 0.000000 0.000000 -5.005016 81.679987 4.230189 0.000000 0.000000 0.000000 -3.022701 -39.194507 29.432540 -18.885684 -29.276381 -4.974866 -8.945109 -15.897484 20.366653 0.000000 0.000000 0.000000 7.125000 0.000000 0.000000 19.189475 49.580137 -2.240852
-4.703551 18.073525 -5.658626 22.702239 -46.808960 -0.894500 0.000000 0.000000 0.000000 -23.836761 -9.953519 -20.572007 0.827836 5.804930 16.219569 0.087450 -3.093888 7.598765 0.356856 -3.836802 -10.618165 0.000000 0.000000 0.000000 1.700935 9.704307 -32.258963 -3.721049 -11.779577 34.956653 -1.250684 0.742712 -20.916562 -1.018317 -6.419789 18.007554 5.747591 3.131029 13.104246 10.122748 4.685820 5.960300 6.828407 2.161786 -1.419964 -11.360426 -14.894899 -4.807437 5.221596 -21.783536 29.371771 0.916349 -10.359907 12.350689 0.000000 0.000000 0.000000 6.717971 -2.163622 -65.751671 68.068203 -58.101767 41.127581 42.955423 -45.266980 -39.707668 0.000000 0.000000 0.000000 -7.125000 0.000000 0.000000 16.519443 78.103009 -12.701762 0.000000 0.000000 0.000000 -5.165937 -39.070484 29.072014 -19.584953 -30.138961 -5.321322 -9.298804 -18.259545 19.979771 0.000000 0.000000 0.000000 7.125000 0.000000 0.000000 18.690815 49.265481 -2.030097
-4.686779 18.079057 -5.623963 21.104977 -47.238164 1.359981 0.000000 0.000000 0.000000 -22.274916 -10.720362 -21.728376 0.867805 5.939886 16.610087 0.062264 -2.904716 6.688159 0.264903 -3.310105 -9.143401 0.000000 0.000000 0.000000 2.733349 9.869136 -33.185747 -3.570548 -11.565893 34.213193 -1.174314 0.622653 -20.294639 -0.959416 -6.237004 17.473587 5.050824 2.251441 12.912723 9.789541 3.445993 5.880000 7.046752 1.545591 -1.327035 -10.753371 -14.019598 -5.290275 4.872856 -20.388826 29.144272 0.917417 -9.746213 12.089727 0.000000 0.000000 0.000000 6.103426 -7.240876 -71.165328 64.093756 -57.305589 37.767427 35.475581 -43.383076 -45.929132 0.000000 0.000000 0.000000 -7.125000 0.000000 0.000000 -12.919954 81.530548 10.900412 0.000000 0.000000 0.000000 -9.538983 -38.197744 21.114490 -20.404494 -31.126501 -5.739036 -12.389717 -19.699411 20.900975 0.000000 0.000000 0.000000 7.125000 0.000000 0.000000 16.179781 50.623552 -2.293497
-4.648224 18.093578 -5.476861 19.392841 -47.938346 3.184103 0.000000 0.000000 0.000000 -21.202730 -11.361210 -21.901064 0.938936 6.172013 17.284272 0.009522 -2.399282 4.020071 0.354129 -3.823355 -10.580137 0.000000 0.000000 0.000000 3.869439 9.322597 -33.499638 -3.396232 -11.310414 33.333931 -1.074848 0.877934 -19.326771 -0.931425 -6.147675 17.213584 4.255406 1.014280 12.813832 9.477528 1.779893 5.448661 7.401886 0.719764 -1.600891 -10.948693 -12.426836 -5.124136 4.600238 -18.107452 29.833392 1.208747 -8.833614 12.106475 0.000000 0.000000 0.000000 4.975408 -14.650686 -82.795635 60.951262 -56.558087 35.133814 27.420220 -42.945212 -46.798357 0.000000 0.000000 0.000000 -7.125000 0.000000 0.000000 -30.088281 78.813797 24.004613 0.000000 0.000000 0.000000 -15.258331 -34.711914 5.949538 -21.138143 -31.989144 -6.123002 -17.059691 -19.537563 21.280265 0.000000 0.000000 0.000000 7.125000 0.000000 0.000000 11.823236 51.765280 -1.992917
-4.600853 18.087159 -5.284292 17.206895 -47.948565 5.189295 0.000000 0.000000 0.000000 -20.333262 -10.412911 -23.203165 1.263721 7.125344 20.087494 -0.027297 -2.927482 0.852004 0.544558 -4.719915 -13.112871 0.000000 0.000000 0.000000 5.158437 8.936402 -33.639126 -3.334297 -11.217484 33.016993 -1.080810 -0.075147 -19.687214 -0.706073 -5.368836 14.964074 3.222965 -1.110296 12.692581 9.641383 -1.125164 5.238349 8.608156 -0.745561 -1.435775 -12.338337 -10.294921 -6.419405 4.614280 -14.788396 30.730493 1.832328 -7.533152 12.547309 0.000000 0.000000 0.000000 2.326012 -22.337673 -92.021422 60.687670 -56.490399 34.913932 14.288614 -46.688673 -49.071450 0.000000 0.000000 0.000000 -7.125000 0.000000 0.000000 -51.345905 74.973326 38.432899 0.000000 0.000000 0.000000 -23.085458 -30.840689 -8.634251 -21.237522 -32.104209 -6.175896 -24.478610 -19.506506 22.196662 0.000000 0.000000 0.000000 7.125000 0.000000 0.000000 4.661723 54.067801 -1.039552
